<svg width="100" height="100" viewBox="0 0 100 100" fill="none" xmlns="http://www.w3.org/2000/svg">
<path d="M59.0036 51.8891L65.0807 36.6965C65.5272 35.5805 64.4196 34.4729 63.3036 34.9194L48.111 40.9965C47.1997 41.361 46.9581 42.5387 47.652 43.2326L56.7676 52.3483C57.4616 53.0422 58.6391 52.8004 59.0036 51.8891Z" fill="#656060"/>
<path d="M36.6965 65.0806L51.889 59.0034C52.8003 58.639 53.0421 57.4612 52.348 56.7673L43.2324 47.6517C42.5385 46.9577 41.3607 47.1993 40.9963 48.1107L34.9192 63.3033C34.4729 64.4195 35.5805 65.5271 36.6965 65.0806Z" fill="#656060"/>
<path d="M85.3555 14.6445C75.9115 5.20078 63.3555 0 50 0C36.6445 0 24.0885 5.20078 14.6445 14.6445C5.20059 24.0883 0 36.6445 0 50C0 63.3555 5.20078 75.9115 14.6445 85.3555C24.0883 94.7994 36.6445 100 50 100C63.3555 100 75.9115 94.7992 85.3555 85.3555C94.7994 75.9117 100 63.3555 100 50C100 36.6445 94.7992 24.0885 85.3555 14.6445ZM74.7764 29.2855L62.2764 60.5355C61.9588 61.3295 61.3295 61.9588 60.5355 62.2764L29.2855 74.7764C28.9094 74.9269 28.5158 75 28.1256 75C27.3117 75 26.5127 74.682 25.9152 74.0846C25.0314 73.2006 24.7592 71.875 25.2234 70.7142L37.7234 39.4643C38.041 38.6703 38.6703 38.041 39.4643 37.7234L70.7143 25.2234C71.8752 24.7592 73.2006 25.0314 74.0846 25.9152C74.9686 26.7992 75.2408 28.125 74.7764 29.2855Z" fill="#656060"/>
</svg>
